<?xml version="1.0" standalone="no"?><!DOCTYPE svg PUBLIC "-//W3C//DTD SVG 1.1//EN" "http://www.w3.org/Graphics/SVG/1.1/DTD/svg11.dtd"><svg t="1565611033937" class="icon" viewBox="0 0 1024 1024" version="1.1" xmlns="http://www.w3.org/2000/svg" p-id="1048" xmlns:xlink="http://www.w3.org/1999/xlink" width="200" height="200"><defs><style type="text/css"></style></defs><path d="M991.86915555 481.29517037v-0.24272592c-0.72817778-11.16539259-8.25268148-20.75306667-18.81125925-24.39395556l-125.24657778-44.05475556c-28.15620741-9.95176297-41.50613333-41.99158518-28.76302222-68.93416296l56.19105185-119.05706667c4.97588148-10.67994075 3.51952592-23.42305185-4.36906667-32.16118518-12.86447408-14.44219259-26.57848889-28.03484445-41.02068148-40.77795555-8.8594963-7.76722963-21.48124445-9.22358518-32.16118518-4.12634075l-118.69297779 56.91922963c-26.94257778 12.86447408-58.9824-0.36408889-69.05552592-28.39893333L565.3997037 51.91300741c-4.00497778-11.04402963-13.95674075-18.93262222-25.72894815-19.53943704-19.29671111-1.09226667-38.83614815-1.09226667-58.6183111 0.24272593h-0.24272593c-11.16539259 0.72817778-20.75306667 8.25268148-24.39395555 18.81125925L412.48237037 176.55277037c-9.95176297 28.15620741-41.99158518 41.50613333-68.93416296 28.76302222L224.49114075 149.12474075c-10.67994075-4.97588148-23.42305185-3.51952592-32.1611852 4.36906666-14.44219259 12.86447408-28.03484445 26.57848889-40.77795555 41.02068148-7.76722963 8.8594963-9.22358518 21.48124445-4.12634075 32.16118519l56.91922964 118.69297777c12.86447408 26.94257778-0.36408889 58.9824-28.39893334 69.05552593l-124.03294814 44.5402074c-11.04402963 4.00497778-18.93262222 13.95674075-19.53943704 25.72894815-1.09226667 19.29671111-1.09226667 38.83614815 0.24272593 58.61831112v0.24272592c0.72817778 11.16539259 8.25268148 20.75306667 18.81125925 24.39395555l125.24657778 44.05475556c28.15620741 9.95176297 41.50613333 41.99158518 28.76302222 68.93416297l-56.3124148 118.9357037c-4.97588148 10.67994075-3.51952592 23.42305185 4.36906666 32.16118518 12.86447408 14.44219259 26.57848889 28.03484445 41.02068148 40.77795556 8.8594963 7.76722963 21.48124445 9.22358518 32.16118519 4.12634074l118.69297777-56.91922963c26.94257778-12.86447408 58.9824 0.36408889 69.05552593 28.39893333l44.5402074 124.03294815c4.00497778 11.04402963 13.95674075 18.93262222 25.72894815 19.53943704 19.29671111 1.09226667 38.83614815 1.09226667 58.61831112-0.24272593h0.12136296c11.16539259-0.72817778 20.75306667-8.25268148 24.51531851-18.81125926l44.05475556-125.24657778c9.95176297-28.15620741 41.99158518-41.50613333 68.93416297-28.76302222l119.05706666 56.19105185c10.67994075 4.97588148 23.42305185 3.51952592 32.16118519-4.36906666 14.44219259-12.86447408 28.03484445-26.57848889 40.77795555-41.02068149 7.76722963-8.8594963 9.22358518-21.48124445 4.12634074-32.16118518l-56.91922962-118.69297777c-12.86447408-26.94257778 0.36408889-58.9824 28.39893333-69.05552593l124.03294815-44.5402074c11.04402963-4.00497778 18.93262222-13.95674075 19.53943703-25.72894816 1.09226667-18.93262222 1.09226667-38.47205925-0.24272593-58.25422222zM515.39816297 675.59727408c-90.17268148 1.82044445-164.68954075-69.90506667-166.50998519-160.07774816-1.82044445-90.17268148 69.90506667-164.68954075 160.07774814-166.50998517 90.17268148-1.82044445 164.68954075 69.90506667 166.50998519 160.07774814 1.82044445 90.05131852-69.90506667 164.68954075-160.07774814 166.50998519z" fill="#bfcbd9" p-id="1049"></path></svg>